<svg id="Layer_1" data-name="Layer 1" xmlns="http://www.w3.org/2000/svg" viewBox="0 0 768.1 791.16"><polygon points="4.62 293.82 746.37 286.89 768.09 791.15 0.01 785.63 4.62 293.82" fill="#4a0072"/><path d="M160.63,438.82,511.09,154a40.32,40.32,0,0,1,50.92.05L902.38,431.89" transform="translate(-156.01 -145)" fill="#4a0072"/><g opacity="0.3"><path d="M160.63,438.82,511.09,154a40.32,40.32,0,0,1,50.92.05L902.38,431.89" transform="translate(-156.01 -145)"/></g><path d="M156,930.63c-.93-.87,58.32-65.83,132.32-145.08S423.1,642.74,424,643.6s-58.3,65.81-132.33,145.09S157,931.49,156,930.63Z" transform="translate(-156.01 -145)" fill="#fff"/><path d="M924.1,936.15c-1,.85-58.91-62.56-129.45-141.6s-127-143.83-126-144.68,58.9,62.55,129.46,141.62S925.05,935.31,924.1,936.15Z" transform="translate(-156.01 -145)" fill="#fff"/><g opacity="0.5"><polyline points="746.37 286.89 374.51 585.22 4.62 293.82"/></g><polygon points="42.03 321.3 40.39 89.63 689.88 80.6 697.71 324.34 374.47 581.32 42.03 321.3" fill="#fafafa"/><path d="M198,466.3s2.14,1.54,6.16,4.62l17.71,13.66,67.23,52.2c58,45.2,141.12,110,242,188.66h-1.38l323.1-257.16-.51,1.09c-1.49-46.5-3.07-95.28-4.67-144.92-1.07-33.42-2.12-66.44-3.16-98.82l1.37,1.31-649.5,8.55.86-.88c.34,72.84.6,130.68.78,170.39,0,19.82.08,35.1.1,45.5,0,5.14,0,9.05,0,11.76s-.08,4-.08,4-.09-1.31-.14-3.92-.11-6.57-.2-11.66c-.12-10.38-.3-25.62-.54-45.39-.38-39.78-.94-97.73-1.63-170.69v-.87h.87l649.48-9.52h1.33l0,1.33c1,32.37,2.1,65.4,3.18,98.81,1.59,49.64,3.15,98.42,4.64,144.93l0,.67-.53.42L531.17,727.2l-.69.55-.69-.55L288.06,537.48l-66.75-52.59-17.42-13.82C200,468,198,466.3,198,466.3Z" transform="translate(-156.01 -145)" fill="#1a2e35"/><path d="M743.49,342.46c0,.75-99.32,2.17-221.83,3.17s-221.86,1.19-221.87.44,99.3-2.17,221.85-3.17S743.48,341.7,743.49,342.46Z" transform="translate(-156.01 -145)" fill="#1a2e35"/><path d="M743.62,407.9c0,.75-99.32,2.17-221.82,3.17s-221.86,1.19-221.87.44,99.3-2.17,221.85-3.17S743.62,407.14,743.62,407.9Z" transform="translate(-156.01 -145)" fill="#1a2e35"/><path d="M743.78,483.32c0,.75-99.32,2.17-221.82,3.17s-221.87,1.2-221.87.44,99.3-2.17,221.84-3.16S743.77,482.57,743.78,483.32Z" transform="translate(-156.01 -145)" fill="#1a2e35"/><path d="M743.94,558.74c0,.75-94.76,2.14-211.63,3.09s-211.67,1.11-211.67.36,94.73-2.13,211.65-3.08S743.93,558,743.94,558.74Z" transform="translate(-156.01 -145)" fill="#1a2e35"/><path d="M661,625.12a9.83,9.83,0,0,1-2.6.29l-7.46.33-27.44.68L533,628.06c-35.36.67-67.39.87-90.56.85L415,628.73l-7.46-.19a9.39,9.39,0,0,1-2.61-.26,9.83,9.83,0,0,1,2.6-.29l7.46-.32L442.4,627l90.53-1.64c35.36-.66,67.38-.87,90.55-.85l27.45.19,7.47.19A9.09,9.09,0,0,1,661,625.12Z" transform="translate(-156.01 -145)" fill="#1a2e35"/><path d="M577.52,688.93c0,.75-21.18,1.4-47.3,1.46s-47.3-.52-47.3-1.27,21.17-1.4,47.3-1.46S577.52,688.17,577.52,688.93Z" transform="translate(-156.01 -145)" fill="#1a2e35"/></svg>