<svg xmlns="http://www.w3.org/2000/svg" viewBox="0 0 362.73 365.37"><g id="Background_Simple" data-name="Background Simple"><path d="M248.27,73s-65.36,3.31-107.56,58.66-43.36,131-45.93,192.23,33.34,107.61,85.94,113.72,66.79-40.91,125.81-67.38,78.7-24.57,114-78.92,10.61-137.89-53.4-180.74S248.27,73,248.27,73Z" transform="translate(-73.97 -72.75)" fill="#c481e0"/><path d="M248.27,73s-65.36,3.31-107.56,58.66-43.36,131-45.93,192.23,33.34,107.61,85.94,113.72,66.79-40.91,125.81-67.38,78.7-24.57,114-78.92,10.61-137.89-53.4-180.74S248.27,73,248.27,73Z" transform="translate(-73.97 -72.75)" fill="#fff" opacity="0.7"/></g><g id="Icons"><path d="M107.72,260.72h6.89v-8.43a3.84,3.84,0,0,1,3.84-3.85h0a3.85,3.85,0,0,1,3.85,3.85v24a4.14,4.14,0,0,0,4.14,4.14h0a4.14,4.14,0,0,0,4.15-4.14V232.8a5,5,0,0,1,5-5h0a5,5,0,0,1,5,5v58.26a4.74,4.74,0,0,0,4.73,4.74h0a4.74,4.74,0,0,0,4.74-4.74V220a6.22,6.22,0,0,1,6.21-6.22h0a6.22,6.22,0,0,1,6.22,6.22v70.75a5,5,0,0,0,5,5h0a5,5,0,0,0,5-5V234.36a5.92,5.92,0,0,1,5.92-5.92h0a5.92,5.92,0,0,1,5.92,5.92V276a4.44,4.44,0,0,0,4.44,4.44h0a4.44,4.44,0,0,0,4.44-4.44V253.34a4.23,4.23,0,0,1,4.23-4.23h0a4.23,4.23,0,0,1,4.24,4.23v7.37h7.87" transform="translate(-73.97 -72.75)" fill="none" stroke="#fff" stroke-miterlimit="10"/><path d="M204.22,260.72h6.89v-8.43a3.84,3.84,0,0,1,3.84-3.85h0a3.85,3.85,0,0,1,3.85,3.85v24a4.14,4.14,0,0,0,4.14,4.14h0a4.14,4.14,0,0,0,4.15-4.14V232.8a5,5,0,0,1,5-5h0a5,5,0,0,1,5,5v58.26a4.74,4.74,0,0,0,4.73,4.74h0a4.74,4.74,0,0,0,4.74-4.74V220a6.22,6.22,0,0,1,6.21-6.22h0a6.22,6.22,0,0,1,6.22,6.22v70.75a5,5,0,0,0,5,5h0a5,5,0,0,0,5-5V234.36a5.92,5.92,0,0,1,5.92-5.92h0a5.92,5.92,0,0,1,5.92,5.92V276a4.44,4.44,0,0,0,4.44,4.44h0a4.44,4.44,0,0,0,4.44-4.44V253.34a4.23,4.23,0,0,1,4.23-4.23h0a4.23,4.23,0,0,1,4.24,4.23v7.37h7.87" transform="translate(-73.97 -72.75)" fill="none" stroke="#fff" stroke-miterlimit="10"/><path d="M300.72,260.72h6.89v-8.43a3.84,3.84,0,0,1,3.84-3.85h0a3.85,3.85,0,0,1,3.85,3.85v24a4.14,4.14,0,0,0,4.14,4.14h0a4.14,4.14,0,0,0,4.15-4.14V232.8a5,5,0,0,1,5-5h0a5,5,0,0,1,5,5v58.26a4.74,4.74,0,0,0,4.73,4.74h0a4.74,4.74,0,0,0,4.74-4.74V220a6.22,6.22,0,0,1,6.21-6.22h0a6.22,6.22,0,0,1,6.22,6.22v70.75a5,5,0,0,0,5,5h0a5,5,0,0,0,5-5V234.36a5.92,5.92,0,0,1,5.92-5.92h0a5.92,5.92,0,0,1,5.92,5.92V276a4.44,4.44,0,0,0,4.44,4.44h0a4.44,4.44,0,0,0,4.44-4.44V253.34a4.23,4.23,0,0,1,4.23-4.23h0a4.23,4.23,0,0,1,4.24,4.23v7.37h7.87" transform="translate(-73.97 -72.75)" fill="none" stroke="#fff" stroke-miterlimit="10"/><polygon points="178.24 33.84 178.24 24.57 170.22 29.2 178.24 33.84" fill="#fff"/><rect x="167.55" y="24.35" width="1.46" height="9.47" fill="#fff"/><polygon points="220.7 33.84 228.72 29.2 220.7 24.57 220.7 33.84" fill="#fff"/><rect x="229.93" y="24.35" width="1.46" height="9.47" fill="#fff"/><path d="M273.91,88.49a12.34,12.34,0,1,0,12.34,12.34A12.34,12.34,0,0,0,273.91,88.49Zm-1.75,18.84h-3.67v-13h3.67Zm7.17,0h-3.67v-13h3.67Z" transform="translate(-73.97 -72.75)" fill="#fff"/><rect x="242.96" y="332" width="11.63" height="4.23" fill="#fff"/><rect x="242.96" y="326.01" width="11.63" height="4.23" fill="#fff"/><rect x="242.96" y="320.02" width="11.63" height="4.23" fill="#fff"/><rect x="242.96" y="314.03" width="11.63" height="4.23" fill="#fff"/><rect x="273.09" y="332" width="11.63" height="4.23" fill="#fff"/><rect x="273.09" y="326.01" width="11.63" height="4.23" fill="#fff"/><rect x="212.83" y="332" width="11.63" height="4.23" fill="#fff"/><rect x="212.83" y="326.01" width="11.63" height="4.23" fill="#fff"/><rect x="227.9" y="332" width="11.63" height="4.23" fill="#fff"/><rect x="227.9" y="326.01" width="11.63" height="4.23" fill="#fff"/><rect x="227.9" y="320.02" width="11.63" height="4.23" fill="#fff"/><rect x="227.9" y="314.03" width="11.63" height="4.23" fill="#fff"/><rect x="227.9" y="308.04" width="11.63" height="4.23" fill="#fff"/><rect x="227.9" y="302.05" width="11.63" height="4.23" fill="#fff"/><rect x="227.9" y="296.06" width="11.63" height="4.23" fill="#fff"/><rect x="258.03" y="332" width="11.63" height="4.23" fill="#fff"/><rect x="258.03" y="326.01" width="11.63" height="4.23" fill="#fff"/><rect x="258.03" y="320.02" width="11.63" height="4.23" fill="#fff"/><rect x="258.03" y="314.03" width="11.63" height="4.23" fill="#fff"/><rect x="258.03" y="308.04" width="11.63" height="4.23" fill="#fff"/><rect x="258.03" y="302.05" width="11.63" height="4.23" fill="#fff"/><line x1="11.32" y1="94.5" x2="11.32" y2="108.05" fill="none" stroke="#fff" stroke-linecap="round" stroke-miterlimit="10" stroke-width="3"/><line x1="6.41" y1="96.29" x2="6.41" y2="106.26" fill="none" stroke="#fff" stroke-linecap="round" stroke-miterlimit="10" stroke-width="3"/><line x1="1.5" y1="96.29" x2="1.5" y2="106.26" fill="none" stroke="#fff" stroke-linecap="round" stroke-miterlimit="10" stroke-width="3"/><line x1="60.4" y1="96.29" x2="60.4" y2="106.26" fill="none" stroke="#fff" stroke-linecap="round" stroke-miterlimit="10" stroke-width="3"/><line x1="55.49" y1="96.29" x2="55.49" y2="106.26" fill="none" stroke="#fff" stroke-linecap="round" stroke-miterlimit="10" stroke-width="3"/><line x1="16.23" y1="94.5" x2="16.23" y2="108.05" fill="none" stroke="#fff" stroke-linecap="round" stroke-miterlimit="10" stroke-width="3"/><line x1="21.13" y1="92.11" x2="21.13" y2="110.43" fill="none" stroke="#fff" stroke-linecap="round" stroke-miterlimit="10" stroke-width="3"/><line x1="26.04" y1="88.36" x2="26.04" y2="114.19" fill="none" stroke="#fff" stroke-linecap="round" stroke-miterlimit="10" stroke-width="3"/><line x1="50.59" y1="94.5" x2="50.59" y2="108.05" fill="none" stroke="#fff" stroke-linecap="round" stroke-miterlimit="10" stroke-width="3"/><line x1="45.68" y1="94.5" x2="45.68" y2="108.05" fill="none" stroke="#fff" stroke-linecap="round" stroke-miterlimit="10" stroke-width="3"/><line x1="40.77" y1="92.11" x2="40.77" y2="110.43" fill="none" stroke="#fff" stroke-linecap="round" stroke-miterlimit="10" stroke-width="3"/><line x1="35.86" y1="88.36" x2="35.86" y2="114.19" fill="none" stroke="#fff" stroke-linecap="round" stroke-miterlimit="10" stroke-width="3"/><line x1="30.95" y1="83.58" x2="30.95" y2="118.96" fill="none" stroke="#fff" stroke-linecap="round" stroke-miterlimit="10" stroke-width="3"/><path d="M404.78,169.28a12.07,12.07,0,0,0-23.53.14,12.07,12.07,0,0,0,.71,24l.22-2.42a9.64,9.64,0,0,1,.19-19.21l1-.07.14-1a9.63,9.63,0,0,1,19.08,0l.16,1.18,1.19-.13a9.48,9.48,0,0,1,1.08-.07A9.65,9.65,0,0,1,405,191v2.44a12.08,12.08,0,1,0-.22-24.16Z" transform="translate(-73.97 -72.75)" fill="#fff"/><path d="M400.79,179.05a1.21,1.21,0,0,0-.49-1,1.23,1.23,0,0,0-1.08-.19l-12.81,3.8a1.21,1.21,0,0,0-.87,1.17v14.66a3.83,3.83,0,0,0-1.36-.26,3.78,3.78,0,1,0,3.74,4.1H388V190.16l10.38-3.07v6.48a3.66,3.66,0,0,0-1.33-.26,3.77,3.77,0,1,0,3.77,3.77v-18Zm-2.44,5.49L388,187.62v-3.86l10.38-3.08Z" transform="translate(-73.97 -72.75)" fill="#fff"/><path d="M140.09,351.83a16,16,0,1,0,16,16A16,16,0,0,0,140.09,351.83Zm0,21.83a5.8,5.8,0,1,1,5.8-5.8A5.8,5.8,0,0,1,140.09,373.66Z" transform="translate(-73.97 -72.75)" fill="#fff"/><path d="M140.09,326.59a9.89,9.89,0,1,0,9.89,9.89A9.88,9.88,0,0,0,140.09,326.59Zm0,13.46a3.58,3.58,0,1,1,3.57-3.57A3.57,3.57,0,0,1,140.09,340.05Z" transform="translate(-73.97 -72.75)" fill="#fff"/><rect x="45.52" y="248.77" width="41.18" height="67.03" rx="3.94" fill="none" stroke="#fff" stroke-miterlimit="10"/></g><g id="Character"><path d="M228.33,151.66c0-1.39,1.9-2.89,1.72-4.23s-2.4-2.34-2.75-3.65,1.09-3.27.57-4.53-2.93-1.62-3.61-2.8.2-3.44-.63-4.53-3.24-.8-4.21-1.77-.69-3.38-1.78-4.21-3.33.06-4.52-.63-1.53-3.08-2.8-3.61-3.2.93-4.53.57-2.27-2.58-3.65-2.76-2.84,1.73-4.23,1.73-2.89-1.9-4.23-1.73-2.33,2.41-3.64,2.76-3.28-1.09-4.54-.57-1.62,2.93-2.8,3.61-3.44-.21-4.52.63-.81,3.24-1.78,4.21-3.37.68-4.21,1.77.06,3.34-.62,4.53-3.09,1.53-3.61,2.8.92,3.2.56,4.53-2.57,2.27-2.75,3.64,1.73,2.85,1.73,4.24-1.91,2.88-1.73,4.23,2.4,2.33,2.75,3.64-1.09,3.28-.56,4.53,2.92,1.62,3.61,2.81-.21,3.44.62,4.52,3.25.8,4.21,1.77.69,3.38,1.78,4.21,3.33-.06,4.52.63,1.53,3.08,2.8,3.61,3.2-.92,4.54-.57,2.27,2.58,3.64,2.76,2.84-1.73,4.23-1.73,2.89,1.9,4.23,1.73,2.33-2.41,3.65-2.76,3.27,1.09,4.53.57,1.62-2.93,2.8-3.61,3.44.21,4.53-.63.8-3.24,1.77-4.21,3.37-.68,4.21-1.77-.06-3.34.63-4.53,3.08-1.52,3.61-2.8-.93-3.19-.57-4.53,2.57-2.27,2.75-3.64S228.33,153.05,228.33,151.66Z" transform="translate(-73.97 -72.75)" fill="#263238" stroke="#263238" stroke-linecap="round" stroke-linejoin="round"/><path d="M181.19,161.42a1,1,0,0,1-.92-.59,22.38,22.38,0,0,1-1.59-5.3c-2-11.28,4.89-21.92,15.25-23.71s20.37,6,22.32,17.23c.11.66.2,1.31.25,2a1,1,0,1,1-2,.17c0-.59-.13-1.19-.23-1.79-1.76-10.2-10.73-17.19-20-15.6s-15.38,11.2-13.62,21.4A20.42,20.42,0,0,0,182.1,160a1,1,0,0,1-.51,1.32A1,1,0,0,1,181.19,161.42Z" transform="translate(-73.97 -72.75)" fill="#fff" stroke="#263238" stroke-miterlimit="10"/><path d="M248.24,305.35s40.63-10,53.29-22c0,0-3.66,19,3,29s33.28,36.46,37.94,41.79,13.4,17.88,16.06,17.54,10-12.33,12.34-15.66,6.39-5.45,7.05-11.12-2.66-6-4-4.33-8.21,6.88-12.55,8.21-9,2.89-9,2.89a222.8,222.8,0,0,1-18.5-31c-8-16.67-16.32-48-19-54.32s-6.67-8.33-11.67-8.33-21,0-49,12.33-27,24.33-24.33,28.67S239.2,307.07,248.24,305.35Z" transform="translate(-73.97 -72.75)" fill="#263238" stroke="#263238" stroke-linecap="round" stroke-linejoin="round"/><path d="M377.92,345c.67-5.66-2.66-6-4-4.33s-8.21,6.88-12.55,8.21-9,2.89-9,2.89a226.72,226.72,0,0,1-15.6-25.25,25.58,25.58,0,0,1-11.34,9.8c7.65,8.06,14.84,15.39,17.06,17.92,4.67,5.34,13.4,17.88,16.06,17.54s10-12.33,12.34-15.66S377.26,350.62,377.92,345Z" transform="translate(-73.97 -72.75)" fill="#d9d9d9" stroke="#263238" stroke-linecap="round" stroke-linejoin="round"/><path d="M197.22,177.93s4.39,9,4.88,12-2.93,4.64-6.35,5.37S187,194,181.6,200.14,163,232.85,161.09,237s0,7.57,5.37,6.59,19.77-20,19.77-20,17.82,21.72,20,26.36,1.47,12.45,1,20.51-1.71,19.77,5.61,29.29,22.71,12.21,35.4,5.61,26.4-29.34,20.29-38.62-19.8-13.86-23.95-22.65-2.71-13.65-2.71-22.68a148.08,148.08,0,0,0-2-20.67s21-5,45.33-8.33c8.47-1.16,3.17-10.74-1.71-12.69-6.12-2.45-33.23.38-40.62-.31-10.67-1-16.11,1.21-18.55,2.92s-5.62,4.15-8.3,3.91-5.62-13.43-5.62-13.43S203.32,178.66,197.22,177.93Z" transform="translate(-73.97 -72.75)" fill="#ae52d4" stroke="#263238" stroke-linecap="round" stroke-linejoin="round"/><path d="M254.36,179.28l-2,.08a32.67,32.67,0,0,0,4.37,17.8l2.1-.4A31.08,31.08,0,0,1,254.36,179.28Z" transform="translate(-73.97 -72.75)" fill="#263238"/><path d="M243.05,240.28c-.22-.65-.41-1.29-.57-1.91-15.13,3.36-27.93,13.16-34.76,19.29,0,.86,0,1.76,0,2.68C214,254.52,227.25,243.74,243.05,240.28Z" transform="translate(-73.97 -72.75)" fill="#263238"/><path d="M204.39,246.93c.44.65.83,1.23,1.14,1.74,4.51-4.45,16-14,36.13-19.77,0-.69.05-1.41.08-2.14C221,232.54,209.29,242.11,204.39,246.93Z" transform="translate(-73.97 -72.75)" fill="#263238"/><path d="M189.52,213.6c3.59-.39,20.71-3,45.59-19A68.78,68.78,0,0,0,239,201.3a1,1,0,0,0,.83.43l.16,0-.16-1,1-.22a1,1,0,0,0-.15-.34c-.08-.12-7.66-11.31-8.42-20.64-.71.11-1.37.23-2,.37a29.45,29.45,0,0,0,1.09,5.52,91.33,91.33,0,0,1-42.39,17,38.52,38.52,0,0,0-1.75-6.24,12.43,12.43,0,0,0-1.86.82,36.88,36.88,0,0,1,1.51,5.38,17.24,17.24,0,0,0-4.11-3.47,13.45,13.45,0,0,0-1.18,1.2l-.24.28c2.78,1.66,5.47,4.15,6.25,7.78a39.49,39.49,0,0,1-.18,5.88,17.06,17.06,0,0,0-9.68-8.42c-.34.55-.69,1.13-1.05,1.73a14.57,14.57,0,0,1,10,10.37.6.6,0,0,0,.09.22c-.23,1.08-.52,2.17-.86,3.29a21,21,0,0,0-12.41-8.38l-1,1.81a18.61,18.61,0,0,1,12.6,9c-.29.82-.56,1.61-.83,2.39,1.19-1.51,1.92-2.47,1.92-2.47l.74.9.2-.56A40.93,40.93,0,0,0,189.52,213.6ZM232,187.42a55.35,55.35,0,0,0,2.2,5.33c-23.66,15.3-40.52,18.29-44.57,18.81,0-.95,0-1.87,0-2.76a1,1,0,0,0,0-.39l0-.16c-.06-1.35-.18-2.62-.35-3.82A93.6,93.6,0,0,0,232,187.42Z" transform="translate(-73.97 -72.75)" fill="#263238"/><path d="M248.22,249.05q-.79-.81-1.5-1.65c-17.4,5-31.14,14.85-39.43,22.09l-.06,1q-.06.9-.12,1.86C215.16,265,229.6,254.1,248.22,249.05Z" transform="translate(-73.97 -72.75)" fill="#263238"/><path d="M241.83,219.29c0-.66,0-1.32-.08-2-25.66,1.36-38.32,14.5-43.32,21.59l1.27,1.65C204.15,234,216.25,220.66,241.83,219.29Z" transform="translate(-73.97 -72.75)" fill="#263238"/><path d="M267.7,178.76l-2.07.07a32.61,32.61,0,0,0,1.84,16.34l2-.35A31.22,31.22,0,0,1,267.7,178.76Z" transform="translate(-73.97 -72.75)" fill="#263238"/><path d="M240.25,179.22a60.11,60.11,0,0,0,6.44,20l2.06-.44a58.08,58.08,0,0,1-6.43-19.41C241.61,179.3,240.92,179.25,240.25,179.22Z" transform="translate(-73.97 -72.75)" fill="#263238"/><path d="M241,208.4c-.09-.69-.17-1.36-.25-2-29.07,3.5-43.65,15.83-49.8,22.94.43.53.86,1.08,1.32,1.64C198,224.27,212.36,211.89,241,208.4Z" transform="translate(-73.97 -72.75)" fill="#263238"/><path d="M248.24,305.35c10.5-5.45,21.69-22,21.78-32.76a10.39,10.39,0,0,0-1.52-5.35c-.82-1.27-1.73-2.57-2.69-3.89-3.33-3.52-7.66-6.4-11.62-9.32-22.06,8.31-39.73,25-46.95,31.53a29,29,0,0,0,5.6,14.18C220.17,309.26,235.55,312,248.24,305.35Z" transform="translate(-73.97 -72.75)" fill="#263238" stroke="#263238" stroke-linecap="round" stroke-linejoin="round"/><path d="M182.46,157.74a4.21,4.21,0,0,0-1.26.25c-3.31,1.16-4.61,6-2.91,10.85s5.77,7.81,9.07,6.64a4.49,4.49,0,0,0,1.81-1.2Z" transform="translate(-73.97 -72.75)" fill="#fff" stroke="#263238" stroke-linecap="round" stroke-linejoin="round"/><path d="M182.46,157.74a4.21,4.21,0,0,0-1.26.25,4.6,4.6,0,0,0-1.06.54l7,17a1.17,1.17,0,0,0,.2-.06,4.49,4.49,0,0,0,1.81-1.2Z" transform="translate(-73.97 -72.75)" fill="#fff" stroke="#263238" stroke-linecap="round" stroke-linejoin="round"/><path d="M212.59,147.69a4.42,4.42,0,0,1,1.14-.6c3.3-1.16,7.36,1.81,9.07,6.64s.41,9.69-2.89,10.86a4.69,4.69,0,0,1-2.17.2Z" transform="translate(-73.97 -72.75)" fill="#fff" stroke="#263238" stroke-linecap="round" stroke-linejoin="round"/><path d="M212.59,147.69a4.42,4.42,0,0,1,1.14-.6,4.5,4.5,0,0,1,1.16-.23l5.21,17.64-.19.09a4.69,4.69,0,0,1-2.17.2Z" transform="translate(-73.97 -72.75)" fill="none" stroke="#263238" stroke-linecap="round" stroke-linejoin="round"/><path d="M221.21,184.44c-1.73,1.08-3.55,1.94-5.19,1.79-2.69-.25-5.62-13.43-5.62-13.43s-7.08,5.86-13.18,5.13c0,0,4.39,9,4.88,12,.4,2.37-1.77,3.94-4.42,4.84,1.27,3.74,5.41,12.3,16.19,9.67C223.3,202.1,222.57,191.06,221.21,184.44Z" transform="translate(-73.97 -72.75)" fill="#d9d9d9" stroke="#263238" stroke-linecap="round" stroke-linejoin="round"/><path d="M212.52,180.38c-.58-1.71-1.09-3.49-1.46-4.9-.31-.81-.6-1.66-.88-2.51-1.18.93-7.46,5.62-13,5,0,0,1.48,3,2.82,6.18,2.36.7,5.68,1.24,8.29-.11A13.89,13.89,0,0,0,212.52,180.38Z" transform="translate(-73.97 -72.75)" fill="#263238" stroke="#263238" stroke-linecap="round" stroke-linejoin="round"/><path d="M183.06,154.49s3.42,14.65,5.86,18.55,11.23,8.55,15.38,9,7.08-4.64,9.52-8.79,3.17-7.57,2.2-12.94a79.59,79.59,0,0,0-6.6-18.55c-1.58-3-9-6.11-15.86-4.4S181.84,146.68,183.06,154.49Z" transform="translate(-73.97 -72.75)" fill="#d9d9d9" stroke="#263238" stroke-linecap="round" stroke-linejoin="round"/><path d="M198.44,162.79s.49-2.93,4.39-1.71" transform="translate(-73.97 -72.75)" fill="none" stroke="#263238" stroke-linecap="round" stroke-linejoin="round"/><path d="M196,167.67s6.83,3.91,11.72-4.15" transform="translate(-73.97 -72.75)" fill="none" stroke="#263238" stroke-linecap="round" stroke-linejoin="round"/><path d="M189.65,161.57s2.69,1.46,6.1-2.2" transform="translate(-73.97 -72.75)" fill="none" stroke="#263238" stroke-linecap="round" stroke-linejoin="round" stroke-width="2"/><path d="M203.32,156.44s5.13,1.71,6.59-2.19" transform="translate(-73.97 -72.75)" fill="none" stroke="#263238" stroke-linecap="round" stroke-linejoin="round" stroke-width="2"/><path d="M187.94,156.93s-.5-6.3,5.88-5.53" transform="translate(-73.97 -72.75)" fill="none" stroke="#263238" stroke-linecap="round" stroke-linejoin="round"/><path d="M200.64,149.12s2.93-3.17,7.32-.49" transform="translate(-73.97 -72.75)" fill="none" stroke="#263238" stroke-linecap="round" stroke-linejoin="round"/><path d="M174.52,161.33s-.74,7.56,0,9.52,7.32,9.27,8.54,11,1.46,1.95-1,6.59-22.7,34.67-23.43,42.24-.25,14.4,7.81,12.93,12.69-21.72,16.11-33.2,7.08-26.36,7.08-29.53-10.26-11.09-11.36-12-1.58-5.07-1.58-7.27S175.49,159.37,174.52,161.33Z" transform="translate(-73.97 -72.75)" fill="#d9d9d9" stroke="#263238" stroke-linecap="round" stroke-linejoin="round"/><path d="M182.57,210.39c.34-1.13.68-2.31,1-3.5l-10.41-4.08c-6.47,10.43-14.09,23.26-14.53,27.85-.73,7.56-.25,14.4,7.81,12.93S179.15,221.87,182.57,210.39Z" transform="translate(-73.97 -72.75)" fill="#ae52d4" stroke="#263238" stroke-linecap="round" stroke-linejoin="round"/><path d="M168.51,210.47l-.12.2-.3.5c-.22.37-.44.74-.65,1.11a99,99,0,0,1,13.36,4.28l.55-1.93A100.17,100.17,0,0,0,168.51,210.47Z" transform="translate(-73.97 -72.75)" fill="#263238"/><path d="M172,239.23c.43-.62.85-1.3,1.26-2a39.82,39.82,0,0,1-14.86-2.31q0,1.14.09,2.19A41.36,41.36,0,0,0,172,239.23Z" transform="translate(-73.97 -72.75)" fill="#263238"/><path d="M162.2,221.68c-.09.17-.18.34-.26.51s-.19.37-.28.55l-.43.87A49.47,49.47,0,0,1,177.28,228c.22-.63.44-1.27.65-1.91A50.7,50.7,0,0,0,162.2,221.68Z" transform="translate(-73.97 -72.75)" fill="#263238"/><path d="M219.89,144.12s6.21,4.38,7.22,6.21,2.26,11.6,2.76,13.64.53,2.38,5.63,3.55,41.09,5.38,47.31,9.75,11.08,9.21,4.72,14.36-24.75-4.53-35.68-9.42-24.61-11.81-27-13.88-1.71-15-1.7-16.44-2.82-4.51-4.49-5.94S217.77,143.59,219.89,144.12Z" transform="translate(-73.97 -72.75)" fill="#d9d9d9" stroke="#263238" stroke-linecap="round" stroke-linejoin="round"/><path d="M251.85,182.21l-3.32-1.5,3.69-10.56c12.13,1.89,26.82,4.47,30.59,7.12,6.22,4.38,11.08,9.21,4.72,14.36S262.78,187.1,251.85,182.21Z" transform="translate(-73.97 -72.75)" fill="#ae52d4" stroke="#263238" stroke-linecap="round" stroke-linejoin="round"/><path d="M268.57,189.63c.63.25,1.25.48,1.87.71l6.09-15.5-1.3-.35-.28-.07-.37-.09Z" transform="translate(-73.97 -72.75)" fill="#263238"/><path d="M264.8,172.26l-.53-.09-1.38-.25-5.26,13,1.41.65.41.18,5.45-13.42Z" transform="translate(-73.97 -72.75)" fill="#263238"/><path d="M285.94,179.65c-1.35,3-3.83,8.58-6.14,13.25a18.25,18.25,0,0,0,2.14.19c2.08-4.26,4.24-9,5.56-12C287,180.58,286.49,180.11,285.94,179.65Z" transform="translate(-73.97 -72.75)" fill="#263238"/><path d="M353,355.06a13.41,13.41,0,0,1,3.66,3s-.9,2.43-6.29,6.61c3.58,3.55,6.78,7.23,8.14,7.06,2.67-.33,10-12.33,12.34-15.66s6.39-5.45,7.05-11.12-2.66-6-4-4.33-9.49,7.13-13.82,8.47-7.75,2.63-7.75,2.63S351,354.06,353,355.06Z" transform="translate(-73.97 -72.75)" fill="#fff" stroke="#263238" stroke-linecap="round" stroke-linejoin="round"/><path d="M377.05,340.35c-.86,6.85-3,9.07-11,17.67-6.23,6.7-8.63,10.85-9.55,12.9a3.7,3.7,0,0,0,2,.81c2.67-.33,10-12.33,12.34-15.66s6.39-5.45,7.05-11.12C378.21,342.52,377.76,341.08,377.05,340.35Z" transform="translate(-73.97 -72.75)" fill="#fff" stroke="#263238" stroke-linecap="round" stroke-linejoin="round"/><path d="M226.62,280.44s1.08-.79,2.89-2.08" transform="translate(-73.97 -72.75)" fill="none" stroke="#fff" stroke-linecap="round" stroke-linejoin="round"/><path d="M222.87,282.73s33-25.33,58.66-34.66,34.34-3,32.67,6-13.33,38-22.33,54-24.34,42.33-24.34,42.33,14.67,20.33,16,22.67-8.33,2.66-12.33.33a110,110,0,0,1-10-6c-11.66-7.66-12.33-10.66-10.67-13.33,5.33-8.55,11.76-15.7,14.34-26,4.68-18.74,13.35-43,14.33-40.34a81.75,81.75,0,0,1-29.33,18c-17.67,6-29.19,4.45-37-6" transform="translate(-73.97 -72.75)" fill="#263238" stroke="#263238" stroke-linecap="round" stroke-linejoin="round"/><path d="M233.85,275.3c6.5-4.52,16-10.93,22.93-14.51" transform="translate(-73.97 -72.75)" fill="none" stroke="#fff" stroke-linecap="round" stroke-linejoin="round"/><path d="M267.29,296.44l8.69-7.32s5.48-20.56,18.73-31.07" transform="translate(-73.97 -72.75)" fill="none" stroke="#fff" stroke-linecap="round" stroke-linejoin="round"/><line x1="228.97" y1="212.26" x2="227.14" y2="216.83" fill="none" stroke="#fff" stroke-linecap="round" stroke-linejoin="round"/><line x1="237.2" y1="191.69" x2="230.58" y2="208.24" fill="none" stroke="#fff" stroke-linecap="round" stroke-linejoin="round"/><path d="M271.2,373.4c4,2.33,13.67,2,12.33-.33s-16-22.67-16-22.67,4.06-7,9.23-15.92c-6.44-.83-10.06-3.56-12-5.92-2.66,10-9,17.1-14.2,25.51-1.66,2.67-1,5.67,10.67,13.33A110,110,0,0,0,271.2,373.4Z" transform="translate(-73.97 -72.75)" fill="#d9d9d9" stroke="#263238" stroke-linecap="round" stroke-linejoin="round"/><path d="M267.53,350.4s-1.33-1-3,1.67a33.69,33.69,0,0,0-2.66,5.33l-7.74-8.78c-1.22,1.78-2.43,3.58-3.6,5.45-1.66,2.67-1,5.67,10.67,13.33a110,110,0,0,0,10,6c4,2.33,13.67,2,12.33-.33S267.53,350.4,267.53,350.4Z" transform="translate(-73.97 -72.75)" fill="#fff" stroke="#263238" stroke-linecap="round" stroke-linejoin="round"/><path d="M261.2,367.4a110,110,0,0,0,10,6c3.6,2.1,11.78,2,12.42.31-15.18-.81-27.76-12.89-33.33-19.21C249,357.07,250.17,360.15,261.2,367.4Z" transform="translate(-73.97 -72.75)" fill="#fff" stroke="#263238" stroke-linecap="round" stroke-linejoin="round"/></g></svg>